<svg xmlns="http://www.w3.org/2000/svg" width="19" height="19" fill="none" viewBox="0 0 19 19">
  <path fill="#fff" d="M9.5 0C4.254 0 0 4.361 0 9.74c0 4.304 2.722 7.955 6.497 9.243.474.09.628-.212.628-.469v-1.813c-2.643.59-3.193-1.15-3.193-1.15-.432-1.125-1.055-1.425-1.055-1.425-.862-.604.066-.591.066-.591.954.068 1.456 1.004 1.456 1.004.847 1.488 2.222 1.058 2.764.81.085-.63.33-1.06.603-1.303-2.11-.247-4.328-1.083-4.328-4.814 0-1.064.371-1.933.979-2.614-.098-.246-.424-1.237.092-2.578 0 0 .798-.262 2.614.998A8.9 8.9 0 0 1 9.5 4.71a8.93 8.93 0 0 1 2.38.328c1.813-1.26 2.61-.998 2.61-.998.517 1.341.191 2.332.093 2.578.61.681.978 1.55.978 2.614 0 3.741-2.222 4.565-4.338 4.806.34.302.652.894.652 1.804v2.672c0 .26.152.564.634.468C16.281 17.692 19 14.042 19 9.74 19 4.361 14.746 0 9.5 0Z"/>
</svg>
